<?xml version="1.0" encoding="utf-8"?>
<!-- Generator: Adobe Illustrator 16.0.0, SVG Export Plug-In . SVG Version: 6.00 Build 0)  -->
<!DOCTYPE svg PUBLIC "-//W3C//DTD SVG 1.1//EN" "http://www.w3.org/Graphics/SVG/1.1/DTD/svg11.dtd">
<svg version="1.1" id="Layer_1" xmlns="http://www.w3.org/2000/svg" xmlns:xlink="http://www.w3.org/1999/xlink" x="0px" y="0px"
	 width="482.334px" height="201.119px" viewBox="0 0 482.334 201.119" enable-background="new 0 0 482.334 201.119"
	 xml:space="preserve">
<g>
	<path fill="#F7F7F7" d="M141.64,103.577c0-3.713,0.653-7.016,1.963-9.909c1.309-2.891,3.089-5.342,5.342-7.352
		c2.252-2.009,4.886-3.53,7.899-4.566c3.014-1.035,6.194-1.553,9.543-1.553c3.653,0,6.804,0.639,9.452,1.918
		c2.648,1.278,4.886,2.801,6.712,4.566l-3.745,4.84c-1.826-1.583-3.73-2.831-5.708-3.744c-1.979-0.914-4.125-1.37-6.438-1.37
		c-2.557,0-4.901,0.411-7.032,1.233c-2.132,0.822-3.943,1.995-5.434,3.516c-1.492,1.522-2.664,3.333-3.516,5.434
		c-0.854,2.101-1.279,4.429-1.279,6.986s0.411,4.872,1.233,6.941c0.822,2.07,1.978,3.851,3.47,5.342
		c1.491,1.493,3.288,2.648,5.388,3.47c2.101,0.822,4.429,1.233,6.986,1.233c2.74,0,5.251-0.532,7.534-1.598
		c2.283-1.064,4.368-2.389,6.256-3.973l3.288,4.84c-2.436,2.192-5.16,3.897-8.173,5.114s-6.165,1.826-9.452,1.826
		c-3.47,0-6.682-0.518-9.635-1.552c-2.954-1.035-5.525-2.542-7.717-4.521c-2.192-1.978-3.897-4.414-5.114-7.306
		C142.247,110.503,141.64,107.23,141.64,103.577z"/>
	<path fill="#F7F7F7" d="M200.269,81.294h6.21l0.639,6.393h0.274c3.835-4.201,8.493-7.489,13.79-7.489
		c6.758,0,10.411,3.197,12.237,8.493c4.657-5.022,9.224-8.493,14.612-8.493c9.132,0,13.516,6.027,13.516,17.352v28.128h-7.489
		V98.554c0-8.311-2.648-11.872-8.219-11.872c-3.47,0-7.032,2.283-11.142,6.849v32.146h-7.488V98.554
		c0-8.311-2.648-11.872-8.311-11.872c-3.288,0-7.032,2.283-11.142,6.849v32.146h-7.488V81.294z"/>
	<path fill="#F7F7F7" d="M273.967,103.577c0-3.591,0.562-6.833,1.689-9.726c1.125-2.891,2.618-5.342,4.475-7.352
		c1.855-2.009,4.002-3.562,6.438-4.657c2.436-1.096,4.963-1.644,7.58-1.644c2.74,0,5.145,0.518,7.215,1.553
		c2.068,1.036,4.141,2.436,6.211,4.201l-0.275-8.219V60.654h7.49v65.023h-6.211l-0.639-5.845h-0.275
		c-1.826,1.888-4.004,3.516-6.529,4.886c-2.527,1.37-5.16,2.055-7.898,2.055c-2.924,0-5.557-0.518-7.9-1.552
		s-4.369-2.542-6.072-4.521c-1.705-1.978-3.014-4.398-3.928-7.26C274.423,110.579,273.967,107.291,273.967,103.577z
		 M281.729,103.485c0,5.358,1.143,9.529,3.426,12.512c2.283,2.983,5.492,4.475,9.635,4.475c4.383,0,8.553-2.222,12.51-6.667V91.705
		c-2.008-1.886-3.973-3.226-5.891-4.018c-1.916-0.791-3.85-1.188-5.799-1.188s-3.76,0.411-5.434,1.233
		c-1.674,0.822-3.137,1.979-4.383,3.471c-1.248,1.492-2.238,3.273-2.969,5.342C282.094,98.615,281.729,100.928,281.729,103.485z"/>
	<path fill="#F7F7F7" d="M327.756,103.577c0-3.653,0.639-6.925,1.917-9.817c1.279-2.891,2.969-5.342,5.069-7.352
		c2.1-2.009,4.505-3.546,7.214-4.612c2.709-1.064,5.494-1.598,8.356-1.598c3.165,0,5.996,0.502,8.493,1.507
		c2.496,1.005,4.612,2.42,6.347,4.247c1.735,1.827,3.06,4.019,3.973,6.575c0.913,2.557,1.37,5.388,1.37,8.493
		c0,0.792-0.016,1.568-0.046,2.329c-0.031,0.762-0.106,1.416-0.229,1.963h-34.703c0.061,2.375,0.532,4.506,1.416,6.393
		c0.882,1.888,2.069,3.502,3.562,4.84c1.491,1.34,3.256,2.375,5.297,3.105c2.039,0.73,4.276,1.096,6.712,1.096
		c2.617,0,5.008-0.365,7.169-1.096s4.277-1.735,6.348-3.014l2.648,4.932c-2.192,1.401-4.689,2.618-7.489,3.653
		c-2.801,1.035-5.997,1.552-9.589,1.552c-3.287,0-6.378-0.534-9.27-1.598s-5.419-2.587-7.579-4.566
		c-2.162-1.978-3.867-4.398-5.114-7.26C328.379,110.487,327.756,107.23,327.756,103.577z M363.555,99.924
		c0-4.443-1.157-7.854-3.471-10.229c-2.314-2.374-5.541-3.562-9.68-3.562c-1.827,0-3.578,0.306-5.252,0.914
		c-1.675,0.609-3.182,1.507-4.521,2.694c-1.34,1.187-2.466,2.634-3.379,4.338c-0.913,1.705-1.522,3.653-1.826,5.845H363.555z"/>
	<path fill="#F7F7F7" d="M385.928,81.294h6.21l0.64,10.502h0.274c2.313-3.591,5.159-6.422,8.538-8.493
		c3.379-2.069,7.138-3.105,11.279-3.105c1.644,0,3.164,0.137,4.565,0.411c1.4,0.274,2.8,0.746,4.201,1.416l-1.735,6.484
		c-1.584-0.548-2.908-0.943-3.973-1.187c-1.065-0.243-2.481-0.365-4.246-0.365c-3.35,0-6.562,0.958-9.635,2.876
		c-3.075,1.918-5.952,5.191-8.63,9.817v26.027h-7.489V81.294z"/>
</g>
<g>
	<path fill="#3A3A3A" d="M98.088,84.25c-1.091-0.801-2.133-1.528-3.126-2.176c-0.995-0.648-2.037-1.204-3.126-1.667
		c-1.091-0.463-2.277-0.817-3.559-1.065c-1.283-0.246-2.726-0.371-4.328-0.371c-3.27,0-5.852,0.695-7.743,2.083
		c-1.892,1.389-2.837,3.257-2.837,5.603c0,1.729,0.753,3.148,2.26,4.26c1.506,1.111,3.398,2.13,5.675,3.056
		c2.275,0.926,4.728,1.852,7.358,2.778c2.628,0.926,5.081,2.038,7.358,3.334c2.275,1.296,4.167,2.871,5.675,4.723
		c1.506,1.852,2.26,4.199,2.26,7.038c0,1.977-0.401,3.813-1.202,5.51c-0.802,1.699-1.957,3.18-3.462,4.445
		c-1.507,1.266-3.303,2.315-5.386,3.148c-2.084,0.833-4.376,1.375-6.877,1.621v13.52h-5.771v-13.427
		c-3.592-0.308-6.99-1.142-10.195-2.5c-3.207-1.357-5.932-2.932-8.175-4.723l3.751-5.278c2.436,1.667,5.113,3.134,8.031,4.398
		c2.917,1.266,6.204,1.898,9.859,1.898c3.847,0,6.748-0.755,8.705-2.269c1.955-1.512,2.934-3.441,2.934-5.788
		c0-1.913-0.754-3.503-2.26-4.769c-1.507-1.265-3.383-2.392-5.627-3.38c-2.245-0.987-4.698-1.945-7.358-2.871
		c-2.662-0.926-5.114-2.021-7.358-3.288c-2.246-1.264-4.121-2.778-5.627-4.537c-1.507-1.76-2.26-3.997-2.26-6.714
		c0-3.889,1.426-7.068,4.28-9.538c2.853-2.469,6.62-3.95,11.301-4.445V60.636h5.771v12.131c3.526,0.31,6.476,1.111,8.849,2.408
		c2.372,1.296,4.521,2.84,6.444,4.63L98.088,84.25z"/>
</g>
<g>
	<path fill="#F7F7F7" d="M475.334,7v187.119H7V7H475.334 M482.334,0H0v201.119h482.334V0L482.334,0z"/>
</g>
<g>
</g>
<g>
</g>
<g>
</g>
<g>
</g>
<g>
</g>
<g>
</g>
<g>
</g>
<g>
</g>
<g>
</g>
<g>
</g>
<g>
</g>
<g>
</g>
<g>
</g>
<g>
</g>
<g>
</g>
</svg>
