<?xml version="1.0" encoding="utf-8"?>
<!-- Generator: Adobe Illustrator 16.0.0, SVG Export Plug-In . SVG Version: 6.00 Build 0)  -->
<!DOCTYPE svg PUBLIC "-//W3C//DTD SVG 1.1//EN" "http://www.w3.org/Graphics/SVG/1.1/DTD/svg11.dtd">
<svg version="1.1" id="Layer_1" xmlns="http://www.w3.org/2000/svg" xmlns:xlink="http://www.w3.org/1999/xlink" x="0px" y="0px"
	 width="482.334px" height="201.119px" viewBox="0 0 482.334 201.119" enable-background="new 0 0 482.334 201.119"
	 xml:space="preserve">
<g>
	<path fill="#F7F7F7" d="M135.64,106.577c0-3.713,0.653-7.016,1.963-9.909c1.309-2.891,3.089-5.342,5.342-7.352
		c2.252-2.009,4.886-3.53,7.899-4.566c3.014-1.035,6.194-1.553,9.543-1.553c3.653,0,6.804,0.639,9.452,1.918
		c2.648,1.278,4.886,2.801,6.712,4.566l-3.745,4.84c-1.826-1.583-3.73-2.831-5.708-3.744c-1.979-0.914-4.125-1.37-6.438-1.37
		c-2.557,0-4.901,0.411-7.032,1.233c-2.132,0.822-3.943,1.995-5.434,3.516c-1.492,1.521-2.664,3.333-3.516,5.434
		c-0.854,2.101-1.279,4.429-1.279,6.986c0,2.557,0.411,4.872,1.233,6.94c0.822,2.07,1.978,3.852,3.47,5.342
		c1.491,1.494,3.288,2.648,5.388,3.471c2.101,0.822,4.429,1.232,6.986,1.232c2.74,0,5.251-0.531,7.534-1.598
		c2.283-1.064,4.368-2.389,6.256-3.973l3.288,4.84c-2.436,2.191-5.16,3.896-8.173,5.113c-3.013,1.218-6.165,1.826-9.452,1.826
		c-3.47,0-6.682-0.518-9.635-1.552c-2.954-1.034-5.525-2.542-7.717-4.521c-2.192-1.979-3.897-4.414-5.114-7.307
		C136.247,113.503,135.64,110.229,135.64,106.577z"/>
	<path fill="#F7F7F7" d="M194.269,84.294h6.21l0.639,6.393h0.274c3.835-4.201,8.493-7.489,13.79-7.489
		c6.758,0,10.411,3.197,12.237,8.493c4.657-5.022,9.225-8.493,14.612-8.493c9.132,0,13.516,6.027,13.516,17.352v28.128h-7.489
		v-27.124c0-8.311-2.647-11.872-8.219-11.872c-3.47,0-7.032,2.283-11.142,6.849v32.146h-7.488v-27.123
		c0-8.311-2.648-11.872-8.311-11.872c-3.288,0-7.032,2.283-11.142,6.849v32.146h-7.488L194.269,84.294L194.269,84.294z"/>
	<path fill="#F7F7F7" d="M267.967,106.577c0-3.592,0.562-6.833,1.689-9.726c1.125-2.891,2.618-5.342,4.475-7.352
		c1.854-2.009,4.002-3.562,6.438-4.657c2.436-1.096,4.963-1.644,7.58-1.644c2.74,0,5.145,0.518,7.215,1.553
		c2.068,1.036,4.141,2.436,6.211,4.201l-0.275-8.219V63.654h7.49v65.023h-6.211l-0.639-5.845h-0.275
		c-1.826,1.888-4.004,3.517-6.529,4.886c-2.527,1.37-5.16,2.055-7.898,2.055c-2.924,0-5.557-0.518-7.899-1.551
		c-2.343-1.035-4.369-2.543-6.071-4.521c-1.705-1.979-3.015-4.398-3.929-7.26C268.423,113.579,267.967,110.291,267.967,106.577z
		 M275.729,106.485c0,5.357,1.143,9.529,3.426,12.512s5.492,4.475,9.635,4.475c4.383,0,8.553-2.222,12.51-6.666V94.705
		c-2.008-1.886-3.973-3.226-5.891-4.018c-1.916-0.791-3.85-1.188-5.799-1.188s-3.76,0.411-5.435,1.233
		c-1.674,0.822-3.137,1.979-4.383,3.471c-1.248,1.492-2.237,3.273-2.969,5.342C276.094,101.615,275.729,103.928,275.729,106.485z"/>
	<path fill="#F7F7F7" d="M321.756,106.577c0-3.653,0.639-6.925,1.917-9.817c1.279-2.891,2.969-5.342,5.069-7.352
		c2.1-2.009,4.505-3.546,7.214-4.612c2.709-1.064,5.494-1.598,8.355-1.598c3.165,0,5.996,0.502,8.493,1.507
		c2.496,1.005,4.612,2.42,6.348,4.247c1.734,1.827,3.06,4.019,3.973,6.575c0.913,2.557,1.37,5.388,1.37,8.494
		c0,0.791-0.017,1.567-0.046,2.328c-0.031,0.762-0.106,1.416-0.229,1.963h-34.703c0.062,2.375,0.532,4.506,1.416,6.394
		c0.882,1.888,2.069,3.502,3.563,4.84c1.491,1.34,3.256,2.375,5.297,3.104c2.039,0.73,4.276,1.097,6.712,1.097
		c2.617,0,5.008-0.365,7.169-1.097c2.161-0.73,4.277-1.734,6.348-3.014l2.648,4.932c-2.192,1.401-4.688,2.619-7.489,3.654
		c-2.801,1.034-5.997,1.551-9.589,1.551c-3.287,0-6.378-0.533-9.27-1.598c-2.893-1.064-5.419-2.587-7.579-4.566
		c-2.162-1.978-3.867-4.397-5.114-7.26C322.379,113.487,321.756,110.229,321.756,106.577z M357.555,102.924
		c0-4.443-1.156-7.854-3.471-10.229c-2.314-2.374-5.541-3.562-9.68-3.562c-1.827,0-3.578,0.306-5.252,0.914
		c-1.676,0.609-3.183,1.507-4.521,2.694c-1.34,1.187-2.466,2.634-3.379,4.338c-0.913,1.705-1.521,3.653-1.826,5.845H357.555z"/>
	<path fill="#F7F7F7" d="M379.928,84.294h6.21l0.641,10.502h0.273c2.313-3.591,5.159-6.422,8.538-8.493
		c3.379-2.069,7.138-3.104,11.279-3.104c1.644,0,3.164,0.137,4.564,0.411s2.801,0.746,4.201,1.416l-1.734,6.484
		c-1.584-0.548-2.908-0.943-3.974-1.187c-1.064-0.243-2.48-0.365-4.246-0.365c-3.35,0-6.562,0.958-9.635,2.876
		c-3.075,1.918-5.952,5.191-8.63,9.816v26.027h-7.489L379.928,84.294L379.928,84.294z"/>
</g>
<g>
	<path fill="#F7F7F7" d="M475.334,7v187.119H7V7H475.334 M482.334,0H0v201.119h482.334V0L482.334,0z"/>
</g>
<g>
	<path fill="#333333" d="M95.927,72.749l20.897,55.929h-7.897L95.886,94.022L79.85,128.678H72.68l19.885-43.496l-2.997-8.019
		c-1.27-3.429-3.983-5.129-8.141-5.103h-1.984v-6.399l2.835,0.081C89.676,65.932,94.226,68.268,95.927,72.749z"/>
</g>
</svg>
